# xmcd
#
# Track frame offsets: 
#        150
#        12450
#        26824
#        41197
#        56474
#        70095
#        86179
#        104722
#        117133
#        133247
#        146714
#        161764
#        174506
#        190267
#
# Disc length: 2691 seconds
#
# Revision: 2
# Processed by: cddbd v1.5.2PL0 Copyright (c) Steve Scherf et al.
# Submitted via: ExactAudioCopyFreeDBPlugin 1.0
#
DISCID=d20a810e
DTITLE=Tom Astor - Freunde für´s Leben [CD 1)
DYEAR=2010
DGENRE=Country
TTITLE0=Hallo, guten Morgen Deutschland (Version 2008)
TTITLE1=Wieder ein Morgen (Morning Has Broken9
TTITLE2=Komm wir machen das Leben zur Party
TTITLE3=Mein Eldorado
TTITLE4=Wakantanka - großer Manitu (Gebet eines Indianers)
TTITLE5=Ich Möcht´so Gern Dave Dudley Hör´n  (Tom Astor and Truck Stop)
TTITLE6=Meine Zeit hat niemals Zeit
TTITLE7=Hab´ ich heute schon gelebt
TTITLE8=Wenn du zwei Arme brauchst - die dich umarmen
TTITLE9=Lach mal laut über dich
TTITLE10=Ich kann auf Scherben laufen
TTITLE11=Wir werden nicht älter, wir werden nur noch besser
TTITLE12=Gib mir meine Freiheit zurück
TTITLE13=Und dann packt mich der Blues
EXTD=
EXTT0=
EXTT1=
EXTT2=
EXTT3=
EXTT4=
EXTT5=
EXTT6=
EXTT7=
EXTT8=
EXTT9=
EXTT10=
EXTT11=
EXTT12=
EXTT13=
PLAYORDER=
